<?xml version="1.0" standalone="no"?>
<!DOCTYPE svg PUBLIC "-//W3C//DTD SVG 20010904//EN"
 "http://www.w3.org/TR/2001/REC-SVG-20010904/DTD/svg10.dtd">
<svg version="1.0" xmlns="http://www.w3.org/2000/svg"
 width="1344.000000pt" height="768.000000pt" viewBox="0 0 1344.000000 768.000000"
 preserveAspectRatio="xMidYMid meet">

<g transform="translate(0.000000,768.000000) scale(0.100000,-0.100000)"
fill="#000000" stroke="none">
<path d="M7196 6360 c-71 -5 -182 -16 -245 -25 -143 -19 -518 -89 -626 -116
-86 -22 -405 -122 -468 -146 l-37 -15 0 -378 c0 -207 3 -380 6 -382 3 -3 51
14 106 39 196 86 547 190 853 253 391 80 888 100 1300 51 444 -52 851 -188
1154 -385 350 -227 580 -527 673 -875 25 -98 36 -375 19 -489 -17 -109 -58
-262 -97 -361 -19 -47 -34 -87 -34 -88 0 -2 54 -3 120 -3 l120 0 23 38 c46 73
107 214 151 344 131 389 140 769 25 1128 -30 95 -109 257 -175 358 -208 319
-544 582 -994 777 -310 134 -664 224 -1045 265 -133 15 -667 21 -829 10z"/>
<path d="M5405 5618 c-509 -199 -1063 -550 -1436 -909 -183 -177 -404 -452
-526 -654 -225 -374 -325 -725 -310 -1089 15 -368 167 -710 446 -998 234 -243
536 -433 895 -563 621 -224 1290 -279 2086 -169 374 51 849 180 1280 347 808
313 1577 869 2012 1455 63 84 168 262 168 283 0 18 -11 19 -158 19 l-159 0
-59 -82 c-82 -114 -213 -266 -336 -388 -316 -315 -664 -563 -1090 -776 -567
-284 -1154 -448 -1771 -495 -200 -15 -648 -6 -807 16 -346 48 -622 128 -892
259 -466 225 -805 586 -928 986 -52 171 -65 258 -65 455 0 204 17 314 81 516
35 113 106 286 145 357 64 115 88 156 142 237 109 165 220 298 402 481 99 99
241 229 315 288 150 119 407 296 548 375 51 29 90 57 87 62 -8 11 -10 11 -70
-13z"/>
<path d="M4212 4130 c-145 -31 -236 -146 -235 -296 1 -123 61 -219 167 -265
43 -19 68 -23 166 -23 63 0 134 6 158 13 l42 12 0 154 0 155 -115 0 -115 0 0
-55 0 -55 45 0 45 0 0 -54 c0 -53 -1 -54 -32 -60 -70 -12 -159 27 -189 84 -22
40 -24 126 -6 179 7 19 29 48 50 65 34 27 48 31 114 35 42 2 94 -2 116 -9 22
-6 43 -8 47 -3 4 4 10 29 12 55 5 45 4 47 -26 58 -42 15 -191 21 -244 10z"/>
<path d="M8718 4126 c-88 -31 -128 -81 -128 -159 0 -89 29 -122 157 -177 70
-30 90 -43 98 -65 8 -24 6 -30 -18 -51 -17 -15 -41 -24 -60 -24 -31 0 -113 19
-148 34 -14 6 -18 -1 -21 -46 -2 -29 -1 -58 4 -64 14 -19 135 -37 199 -30 65
6 122 31 156 68 29 31 46 107 34 159 -12 54 -40 82 -114 113 -118 50 -132 59
-135 88 -6 53 66 73 163 43 27 -8 50 -13 51 -12 1 1 5 27 9 58 l7 57 -51 11
c-69 15 -157 13 -203 -3z"/>
<path d="M5775 4122 l-70 -3 2 -282 3 -282 62 1 63 1 5 197 5 197 98 -201 98
-200 88 0 89 0 3 53 c2 28 2 158 -1 287 l-5 235 -39 3 c-22 2 -50 1 -63 -2
l-23 -6 0 -196 0 -196 -96 188 c-53 104 -99 192 -103 195 -11 12 -44 15 -116
11z"/>
<path d="M6539 4123 l-66 -4 -56 -142 c-123 -312 -157 -402 -157 -415 0 -10
18 -12 72 -10 l73 3 21 60 21 60 109 0 108 0 21 -60 20 -60 69 -3 c38 -2 73 1
77 5 8 8 -37 132 -168 468 -43 111 -33 104 -144 98z m51 -228 c17 -49 30 -92
30 -97 0 -4 -29 -8 -65 -8 -36 0 -65 3 -65 8 0 24 60 195 67 189 2 -2 17 -44
33 -92z"/>
<path d="M6963 4122 l-73 -3 0 -279 0 -280 65 0 65 0 2 199 3 198 97 -201 98
-201 92 0 93 0 3 283 2 282 -71 0 -72 0 5 -198 4 -199 -36 71 c-20 39 -64 123
-97 186 -33 63 -62 120 -64 126 -6 16 -34 20 -116 16z"/>
<path d="M8297 4123 l-177 -3 2 -283 3 -282 190 1 190 2 3 56 3 56 -126 0
-125 0 0 59 c0 44 4 60 16 65 9 3 58 6 110 6 l94 0 0 50 0 50 -110 0 -111 0 3
58 3 57 120 0 120 0 0 55 c0 42 -4 55 -15 55 -8 0 -95 -1 -193 -2z"/>
<path d="M4610 3835 l0 -285 70 0 70 0 0 110 0 110 39 0 c50 0 73 -27 101
-116 34 -113 21 -105 182 -102 l141 3 21 60 21 60 110 0 110 0 21 -60 21 -60
78 -3 c71 -3 77 -1 72 15 -4 14 -115 313 -191 513 l-14 35 -91 3 -91 3 -10
-28 c-55 -151 -196 -503 -202 -503 -4 0 -8 4 -8 9 0 29 -68 180 -91 203 l-27
27 33 20 c55 32 69 64 66 148 -1 43 -49 96 -99 111 -22 7 -103 12 -186 12
l-146 0 0 -285z m264 164 c60 -47 15 -119 -75 -119 l-49 0 0 70 0 70 49 0 c34
0 56 -6 75 -21z m531 -117 c15 -46 25 -85 23 -87 -7 -7 -117 -10 -123 -3 -6 6
11 64 48 161 13 37 19 28 52 -71z"/>
<path d="M7510 3840 l0 -279 37 -7 c56 -10 274 4 326 22 25 9 63 32 85 53 58
56 76 102 80 204 4 79 1 93 -23 143 -31 64 -96 117 -162 133 -23 6 -110 11
-192 11 l-151 0 0 -280z m300 152 c55 -27 80 -73 80 -149 0 -116 -46 -163
-166 -171 l-74 -5 0 170 c0 93 3 173 8 177 11 12 113 -3 152 -22z"/>
<path d="M9162 3983 c-28 -76 -76 -201 -105 -278 -36 -94 -50 -142 -43 -147
19 -13 123 -9 133 5 6 6 18 36 27 65 l18 52 108 0 108 0 18 -52 c9 -29 21 -59
27 -65 12 -17 147 -18 147 -2 0 6 -25 77 -55 158 -98 256 -128 335 -141 369
l-13 32 -89 0 -88 0 -52 -137z m176 -95 l30 -93 -65 -3 c-36 -2 -67 -1 -69 1
-6 6 57 187 66 187 4 0 21 -42 38 -92z"/>
<path d="M6370 3341 c-55 -30 -73 -55 -78 -115 -7 -84 11 -108 119 -159 98
-46 117 -70 84 -107 -22 -25 -99 -27 -152 -5 -51 21 -53 20 -53 -30 0 -40 3
-47 28 -56 41 -16 115 -22 165 -15 33 5 58 18 89 45 42 38 43 40 43 105 0 81
-12 95 -128 151 -65 32 -83 45 -85 64 -3 15 3 30 14 38 23 16 88 16 136 -1 36
-13 36 -13 42 17 11 54 7 65 -25 76 -51 18 -159 13 -199 -8z"/>
<path d="M7265 3346 c-51 -23 -77 -60 -83 -117 -8 -80 14 -112 107 -156 88
-41 111 -59 111 -84 0 -45 -94 -64 -167 -34 -19 8 -39 15 -44 15 -5 0 -9 -22
-9 -49 l0 -49 51 -12 c64 -16 159 -8 200 17 55 31 74 67 74 135 0 57 -2 62
-37 92 -21 18 -54 38 -75 44 -64 20 -103 49 -103 77 0 34 32 49 94 41 112 -13
101 -16 101 34 0 39 -3 45 -25 51 -43 12 -164 9 -195 -5z"/>
<path d="M6811 3308 c-10 -24 -22 -54 -26 -68 -4 -14 -39 -103 -76 -199 -38
-95 -69 -175 -69 -177 0 -2 26 -4 59 -4 l58 0 19 53 19 52 96 3 97 3 6 -28
c18 -78 24 -83 87 -83 33 0 59 4 59 9 0 8 -20 65 -127 354 l-48 127 -68 0 -68
0 -18 -42z m113 -152 c14 -46 26 -87 26 -90 0 -3 -27 -6 -60 -6 -33 0 -60 1
-60 3 0 3 44 136 55 165 8 22 14 13 39 -72z"/>
</g>
</svg>
